<?xml version="1.0" encoding="UTF-8"?>
<svg version="1.1" xmlns="http://www.w3.org/2000/svg" width="446" height="583">
<path d="M0 0 C0.66 0.33 1.32 0.66 2 1 C2.06872068 51.03128433 2.12155648 101.06256388 2.15319599 151.09388616 C2.15694795 157.00538057 2.16083093 162.91687488 2.16479492 168.82836914 C2.16558185 170.0052027 2.16636878 171.18203626 2.16717956 172.39453144 C2.18022064 191.43021498 2.20386732 210.46587125 2.23145839 229.50153863 C2.25954872 249.04518348 2.27618393 268.58881408 2.28226548 288.1324783 C2.2863744 300.18439222 2.29933523 312.23622903 2.3237494 324.2881192 C2.33965139 332.56126934 2.34439028 340.83437982 2.34050413 349.10754412 C2.33858952 353.87515533 2.34144956 358.64263211 2.35761642 363.41021919 C2.37234597 367.7861962 2.37286886 372.16194992 2.36269668 376.53793777 C2.36144175 378.11023974 2.36513596 379.68255636 2.37464955 381.25483005 C2.56406196 414.5281969 -9.32269886 438.10301782 -32.4331398 461.5602417 C-35.83300127 464.99202571 -39.24518055 468.41138923 -42.66015625 471.828125 C-44.14187079 473.31305999 -45.62351316 474.79806699 -47.10508728 476.28314209 C-50.18345214 479.36744476 -53.26382541 482.4497251 -56.34545898 485.53076172 C-60.30167927 489.48687933 -64.25091312 493.44989573 -68.19852543 497.41460037 C-71.24304351 500.47019213 -74.29205008 503.52127365 -77.3423748 506.57106781 C-78.80209276 508.03196787 -80.26018475 509.49449443 -81.71663094 510.95865631 C-83.73877753 512.9905319 -85.76707755 515.01605571 -87.79711914 517.04003906 C-88.39914658 517.647686 -89.00117401 518.25533295 -89.6214447 518.88139343 C-93.77166775 523 -93.77166775 523 -96 523 C-96.06874971 484.16237589 -96.12157117 445.324761 -96.15319599 406.48708829 C-96.15694786 401.89617725 -96.16083085 397.30526633 -96.16479492 392.71435547 C-96.16558185 391.8004337 -96.16636878 390.88651193 -96.16717956 389.94489557 C-96.18021377 375.16997318 -96.20385663 360.39508601 -96.23145839 345.62018448 C-96.25956792 330.4463029 -96.27618796 315.2724397 -96.28226548 300.09853315 C-96.28637044 290.74443307 -96.29930952 281.39043255 -96.3237494 272.03636312 C-96.33967516 265.61152987 -96.34438497 259.18674767 -96.34050413 252.76189613 C-96.33859317 249.06170893 -96.34140691 245.36169503 -96.35761642 241.66153908 C-96.47950949 212.34615109 -93.10880975 186.98690682 -73 164 C-72.34644531 163.24847656 -71.69289063 162.49695313 -71.01953125 161.72265625 C-65.69200239 155.71544266 -60.16414199 149.89035428 -54.66552734 144.0402832 C-32.40953447 120.35518599 -30 116.59093785 -30 75 C-83.79 128.79 -137.58 182.58 -193 238 C-191.41845347 241.16309306 -189.86669053 243.54085799 -187.67529297 246.25976562 C-163.88266221 275.81516275 -155.92133174 314.65833507 -159.6875 351.875 C-164.40600604 391.767025 -183.68199087 424.19967179 -215 449 C-219.89241887 447.47688847 -223.10839016 444.63884357 -226.875 441.3125 C-227.49777832 440.76867676 -228.12055664 440.22485352 -228.76220703 439.66455078 C-255.44777408 416.21063038 -270.2029805 384.11211006 -273.75 348.9375 C-273.8606477 346.95967235 -273.94096774 344.98004049 -274 343 C-274.02578125 342.34306152 -274.0515625 341.68612305 -274.078125 341.00927734 C-275.3259035 306.11047238 -266.04976384 272.0589779 -244.1015625 244.64453125 C-241.93841804 241.99796681 -241.93841804 241.99796681 -240 239 C-293.79 185.21 -347.58 131.42 -403 76 C-406.64933867 111.31624666 -406.64933867 111.31624666 -394.3828125 126.22265625 C-390.67924566 129.64713288 -387.00658605 132.86772129 -383.125 136.0625 C-381.22556277 137.74465903 -379.33485919 139.43673263 -377.453125 141.13867188 C-374.73344809 143.59435571 -372.0102979 146.04103405 -369.24755859 148.44822693 C-362.46218325 154.38275335 -356.9947693 160.49469828 -352 168 C-351.41210693 168.86012695 -350.82421387 169.72025391 -350.21850586 170.60644531 C-345.50979156 177.68008495 -342.3536151 185.86168725 -340 194 C-339.74244777 194.87732064 -339.48489553 195.75464128 -339.21953869 196.6585474 C-335.96865689 209.99401024 -336.59351581 223.65230517 -336.65180314 237.2874831 C-336.66487727 241.12979019 -336.66036608 244.97208424 -336.65809631 248.81440735 C-336.6565307 255.45546561 -336.66586494 262.09643477 -336.68280983 268.73747063 C-336.70729254 278.33902982 -336.71501454 287.94054637 -336.7187738 297.5421334 C-336.72532382 313.12373503 -336.74524544 328.70528929 -336.77368164 344.28686523 C-336.80125988 359.41414149 -336.82247499 374.54140482 -336.83520508 389.66870117 C-336.83599325 390.60267693 -336.83678142 391.53665269 -336.83759347 392.49893074 C-336.84150886 397.18486952 -336.84529992 401.87080839 -336.84902918 406.55674732 C-336.88007989 445.37119803 -336.93287596 484.18559588 -337 523 C-339.84736318 521.62710058 -341.93482315 520.31927047 -344.18508911 518.08906555 C-345.09300957 517.19610779 -345.09300957 517.19610779 -346.01927185 516.28511047 C-346.67178421 515.63326279 -347.32429657 514.9814151 -347.99658203 514.30981445 C-349.04137978 513.27750198 -349.04137978 513.27750198 -350.10728455 512.22433472 C-352.41295904 509.94278681 -354.71087591 507.65362383 -357.0078125 505.36328125 C-358.61474378 503.76532218 -360.22174972 502.16743819 -361.8288269 500.56962585 C-365.20343045 497.21152762 -368.57359958 493.84904475 -371.94140625 490.48413086 C-376.22621799 486.20466996 -380.52688352 481.94154194 -384.83188057 477.6824007 C-388.16249126 474.38177909 -391.48154923 471.06971634 -394.79769516 467.7545681 C-396.37619145 466.18023956 -397.95875103 464.60997289 -399.54565811 463.0441227 C-420.47384824 442.37139632 -434.86428867 419.17424041 -435.12304783 388.86237335 C-435.13102869 385.93494537 -435.12606867 383.00762844 -435.12025452 380.0802002 C-435.12069088 378.44812424 -435.12156698 376.81604835 -435.12284368 375.18397284 C-435.12507589 370.70981856 -435.12108479 366.23568829 -435.11606562 361.76153708 C-435.11174302 356.93273006 -435.11320883 352.10392437 -435.1139679 347.27511597 C-435.11449198 338.91239603 -435.11135721 330.54968391 -435.10573006 322.18696594 C-435.09759947 310.09591207 -435.09499823 298.00486197 -435.09374207 285.91380566 C-435.091554 266.29637612 -435.08490056 246.67895073 -435.07543945 227.06152344 C-435.06625899 208.00618511 -435.05918126 188.95084791 -435.05493164 169.89550781 C-435.05466892 168.72073334 -435.05440619 167.54595887 -435.05413551 166.33558518 C-435.05283046 160.44202619 -435.05156676 154.54846719 -435.05032361 148.65490818 C-435.03995864 99.76993591 -435.02234698 50.88496816 -435 2 C-431.4021697 2.58094374 -429.73255155 3.89380278 -427.18130875 6.44954777 C-426.43138129 7.19350207 -425.68145384 7.93745638 -424.90880132 8.70395476 C-424.0916807 9.5298139 -423.27456007 10.35567305 -422.43267822 11.20655823 C-421.55946387 12.07720931 -420.68624952 12.94786038 -419.78657413 13.84489483 C-417.3615728 16.26580232 -414.94350001 18.69327659 -412.5280807 21.12372243 C-409.922775 23.7419632 -407.30882634 26.35154949 -404.69590759 28.96218872 C-400.16913486 33.48738711 -395.64789468 38.01805327 -391.13034821 42.55246162 C-384.59870204 49.10847148 -378.05880417 55.65619824 -371.51685175 62.20192205 C-360.90363336 72.82170906 -350.29713407 83.44818064 -339.69482422 94.07885742 C-329.39462523 104.40658636 -319.09128535 114.73116503 -308.78369141 125.05151367 C-308.14851224 125.68748101 -307.51333308 126.32344834 -306.85890606 126.97868741 C-303.67243303 130.16907551 -300.485898 133.35940167 -297.29933214 136.54969704 C-270.85660177 163.02353609 -244.42476017 189.50822465 -218 216 C-214.78789575 214.58452067 -212.64006241 212.88905545 -210.16569138 210.41178703 C-209.41228053 209.66235828 -208.65886968 208.91292953 -207.8826282 208.14079082 C-207.06161663 207.31395357 -206.24060506 206.48711632 -205.39471436 205.63522339 C-204.51741645 204.75963433 -203.64011855 203.88404528 -202.73623586 202.98192322 C-200.30168355 200.55009812 -197.87170517 198.11385952 -195.44353771 195.67566895 C-192.82415864 193.04766071 -190.19901028 190.42542681 -187.57455444 187.80249023 C-183.02814387 183.25712884 -178.4854123 178.70811713 -173.94515228 174.1566124 C-167.38067794 167.57589062 -160.81069422 161.0006921 -154.23934856 154.42683269 C-143.57817609 143.76128193 -132.92147849 133.09127159 -122.26757812 122.41845703 C-111.9177067 112.05023028 -101.56573879 101.68410416 -91.2109375 91.32080078 C-90.25368826 90.36276337 -90.25368826 90.36276337 -89.27710065 89.38537167 C-86.07562635 86.18128731 -82.87411071 82.97724425 -79.67257452 79.77322173 C-53.10863808 53.18854862 -26.55195659 26.59663795 0 0 Z M-404 158 C-404.09140523 188.06443224 -404.16211841 218.1288597 -404.20426132 248.19340039 C-404.20926367 251.74913239 -404.21444101 255.30486411 -404.21972656 258.8605957 C-404.2207758 259.56842736 -404.22182505 260.27625902 -404.22290608 261.00554013 C-404.24027404 272.44120149 -404.27179164 283.87678177 -404.30861118 295.31239516 C-404.34612142 307.06120146 -404.36825707 318.80996553 -404.37635398 330.55882925 C-404.38155585 337.15177346 -404.39373031 343.74453425 -404.42292023 350.33741951 C-404.45020886 356.55162794 -404.45841783 362.76557857 -404.45243073 368.97984123 C-404.45352496 371.25209838 -404.46139805 373.52436476 -404.4768219 375.79656982 C-404.63686294 400.60468679 -399.39304824 418.28867816 -381.7421875 436.40625 C-375.48639111 442.82242832 -375.48639111 442.82242832 -369 449 C-368.67 449 -368.34 449 -368 449 C-367.88572285 418.82521471 -367.79734146 388.65043688 -367.74467335 358.47548267 C-367.73842047 354.90601804 -367.7319488 351.33655384 -367.7253418 347.76708984 C-367.72337447 346.7012499 -367.72337447 346.7012499 -367.7213674 345.61387783 C-367.69966236 334.13683561 -367.66026819 322.65991972 -367.61423602 311.18295223 C-367.56733433 299.39007344 -367.53967578 287.59726042 -367.52955753 275.8042922 C-367.52333669 269.18725648 -367.50785477 262.57045481 -367.47134972 255.95350647 C-367.43721635 249.71545468 -367.42698208 243.47780421 -367.43446159 237.23966789 C-367.43309479 234.95976004 -367.42326671 232.67983768 -367.40397263 230.40001106 C-367.17640566 202.10378197 -376.52070951 184.63149265 -396.07373047 164.74560547 C-398.35157929 162.45810766 -400.63212365 160.19500931 -403 158 C-403.33 158 -403.66 158 -404 158 Z M-30 163 C-31.65883336 164.72616608 -33.2737918 166.4713945 -34.875 168.25 C-35.87721972 169.35842065 -36.87983503 170.46648372 -37.8828125 171.57421875 C-38.39875977 172.14446777 -38.91470703 172.7147168 -39.44628906 173.30224609 C-40.92191155 174.91467205 -42.41950881 176.50200297 -43.9296875 178.08203125 C-57.10545195 191.93196772 -65.18385232 207.01769045 -65.12025452 226.40888977 C-65.12110894 227.36054604 -65.12196337 228.31220231 -65.12284368 229.29269665 C-65.12449154 232.48331754 -65.11898843 235.67388591 -65.11352539 238.86450195 C-65.11324334 241.15092467 -65.1134016 243.43734748 -65.1139679 245.72377014 C-65.11425518 251.93402772 -65.10836946 258.14426603 -65.10139394 264.35451913 C-65.09514906 270.84345671 -65.0945557 277.33239472 -65.09336853 283.82133484 C-65.09061207 294.71365706 -65.08436287 305.60597216 -65.07543945 316.49829102 C-65.06625844 327.71671514 -65.05918097 338.93513733 -65.05493164 350.15356445 C-65.05466892 350.84523381 -65.05440619 351.53690317 -65.05413551 352.2495322 C-65.05283046 355.71948355 -65.05156675 359.18943491 -65.05032361 362.65938628 C-65.0399593 391.43959553 -65.02227382 420.2197976 -65 449 C-63.87342972 448.03663792 -62.74717845 447.07290277 -61.62106323 446.10900879 C-60.99384809 445.57236855 -60.36663296 445.0357283 -59.7204113 444.48282623 C-44.37022369 431.25246623 -30.45849041 414.71192512 -28.81610847 393.64073551 C-28.75031081 391.11582423 -28.74277762 388.59784422 -28.75949097 386.0721283 C-28.75692769 384.63339201 -28.75692769 384.63339201 -28.75431263 383.16559035 C-28.75103627 379.97351577 -28.7619908 376.7816546 -28.77294922 373.58959961 C-28.77351373 371.29273483 -28.77319599 368.99586969 -28.77206421 366.69900513 C-28.77149127 360.47863031 -28.78323618 354.25833289 -28.79721212 348.03797603 C-28.8097292 341.53171479 -28.81089076 335.02545171 -28.81326294 328.5191803 C-28.81876941 317.60367455 -28.83125506 306.68819733 -28.84912109 295.77270508 C-28.86749837 284.53312318 -28.88164582 273.29354898 -28.89013672 262.05395508 C-28.89066217 261.36034962 -28.89118761 260.66674416 -28.89172898 259.95212036 C-28.89433919 256.47226751 -28.89686657 252.99241461 -28.89935279 249.51256168 C-28.92006309 220.6750224 -28.95541855 191.83751188 -29 163 C-29.33 163 -29.66 163 -30 163 Z M-217 261 C-238.07039155 283.80436392 -244.06177314 313.68117044 -243.18359375 343.78955078 C-241.87019737 366.75652198 -232.75780559 391.91250664 -216 408 C-195.38219165 381.3343012 -186.42063532 351.00229115 -190.49609375 317.109375 C-193.59783917 296.32744692 -202.12965948 276.79001728 -216 261 C-216.33 261 -216.66 261 -217 261 Z " fill="#9E6732" transform="translate(440,56)"/>
<path d="M0 0 C4.2168797 0.78090365 6.63245044 3.36133204 9.7421875 6.1953125 C10.34546875 6.72576172 10.94875 7.25621094 11.5703125 7.80273438 C15.08699103 10.91805285 18.45803039 14.14651076 21.7421875 17.5078125 C22.44859375 18.22839844 23.155 18.94898437 23.8828125 19.69140625 C42.35026755 39.42422396 53.98355861 66.70970324 56.7421875 93.5078125 C56.85175781 94.45140625 56.96132813 95.395 57.07421875 96.3671875 C59.85487879 123.80303323 56.54085125 152.80674997 43.7421875 177.5078125 C43.16855469 178.67441406 42.59492188 179.84101563 42.00390625 181.04296875 C37.49993396 190.01863506 32.14085051 197.78528817 25.7421875 205.5078125 C24.79666016 206.66603516 24.79666016 206.66603516 23.83203125 207.84765625 C19.86135948 212.56000247 15.4905822 216.59170101 10.7421875 220.5078125 C9.96101563 221.17683594 9.17984375 221.84585938 8.375 222.53515625 C7.58867187 223.18613281 6.80234375 223.83710938 5.9921875 224.5078125 C5.27546875 225.1059375 4.55875 225.7040625 3.8203125 226.3203125 C1.7421875 227.5078125 1.7421875 227.5078125 -0.234375 227.4140625 C-4.80796505 225.36565924 -8.46229572 221.71729711 -12.2578125 218.5078125 C-13.07894531 217.83492187 -13.90007812 217.16203125 -14.74609375 216.46875 C-26.20420898 206.71016382 -34.27489348 194.70488881 -41.2578125 181.5078125 C-41.71671875 180.693125 -42.175625 179.8784375 -42.6484375 179.0390625 C-60.17492745 146.64833424 -61.52979802 104.34069997 -51.2578125 69.5078125 C-45.84818011 51.85052924 -37.13692315 35.62299103 -25.2578125 21.5078125 C-24.44699219 20.49332031 -23.63617188 19.47882812 -22.80078125 18.43359375 C-20.33093238 15.59193967 -17.83086157 13.33922093 -14.8828125 11.0078125 C-11.61122508 8.4090112 -8.44518347 5.78606452 -5.3828125 2.9453125 C-2.2578125 0.5078125 -2.2578125 0.5078125 0 0 Z M-0.2578125 39.5078125 C-17.40317089 60.54431606 -26.72031985 85.41754738 -26.5703125 112.6953125 C-26.56467285 113.78465088 -26.5590332 114.87398926 -26.55322266 115.99633789 C-26.18596977 140.63318863 -18.52400192 164.50637945 -3.01953125 183.84765625 C-1.29737518 185.85072129 -1.29737518 185.85072129 1.7421875 185.5078125 C18.62876056 169.59474476 26.06031295 142.04188829 27.05859375 119.5859375 C27.80784074 92.01705376 21.32619119 63.75981672 2.7421875 42.5078125 C1.75358891 41.49653963 0.75735935 40.49240689 -0.2578125 39.5078125 Z " fill="#9B6531" transform="translate(223.2578125,-0.5078125)"/>
<path d="M0 0 C0.66 0.33 1.32 0.66 2 1 C2.06872068 51.03128433 2.12155648 101.06256388 2.15319599 151.09388616 C2.15694795 157.00538057 2.16083093 162.91687488 2.16479492 168.82836914 C2.16558185 170.0052027 2.16636878 171.18203626 2.16717956 172.39453144 C2.18022064 191.43021498 2.20386732 210.46587125 2.23145839 229.50153863 C2.25954872 249.04518348 2.27618393 268.58881408 2.28226548 288.1324783 C2.2863744 300.18439222 2.29933523 312.23622903 2.3237494 324.2881192 C2.33965139 332.56126934 2.34439028 340.83437982 2.34050413 349.10754412 C2.33858952 353.87515533 2.34144956 358.64263211 2.35761642 363.41021919 C2.37234597 367.7861962 2.37286886 372.16194992 2.36269668 376.53793777 C2.36144175 378.11023974 2.36513596 379.68255636 2.37464955 381.25483005 C2.56406196 414.5281969 -9.32269886 438.10301782 -32.4331398 461.5602417 C-35.83300127 464.99202571 -39.24518055 468.41138923 -42.66015625 471.828125 C-44.14187079 473.31305999 -45.62351316 474.79806699 -47.10508728 476.28314209 C-50.18345214 479.36744476 -53.26382541 482.4497251 -56.34545898 485.53076172 C-60.30167927 489.48687933 -64.25091312 493.44989573 -68.19852543 497.41460037 C-71.24304351 500.47019213 -74.29205008 503.52127365 -77.3423748 506.57106781 C-78.80209276 508.03196787 -80.26018475 509.49449443 -81.71663094 510.95865631 C-83.73877753 512.9905319 -85.76707755 515.01605571 -87.79711914 517.04003906 C-88.39914658 517.647686 -89.00117401 518.25533295 -89.6214447 518.88139343 C-93.77166775 523 -93.77166775 523 -96 523 C-96.04580539 484.09428168 -96.0810334 445.18856688 -96.10213066 406.28282697 C-96.10463199 401.68676091 -96.10722064 397.09069489 -96.10986328 392.49462891 C-96.11065021 391.12217239 -96.11065021 391.12217239 -96.11145304 389.72198948 C-96.12014908 374.91850915 -96.13591465 360.1150444 -96.15430559 345.3115733 C-96.17302693 330.11510956 -96.18412145 314.91865397 -96.18817699 299.72217917 C-96.19091741 290.349666 -96.19956425 280.97719687 -96.21583293 271.60469726 C-96.22642739 265.17242352 -96.22959506 258.74017245 -96.22700275 252.30789062 C-96.22572529 248.60013596 -96.22764534 244.89245809 -96.23841095 241.18471718 C-96.25002319 237.15574895 -96.24595638 233.1269427 -96.24050903 229.09796143 C-96.24924756 227.35861088 -96.24924756 227.35861088 -96.25816262 225.58412194 C-96.2312972 218.20815084 -95.43403311 211.23467957 -94 204 C-93.67 204 -93.34 204 -93 204 C-92.87426535 211.41834455 -92.87426535 211.41834455 -93.49841303 214.30568618 C-94.01032276 217.05544953 -94.12420317 219.5525277 -94.12304783 222.34730244 C-94.12503888 223.41272654 -94.12702993 224.47815064 -94.12908131 225.57586032 C-94.12471205 227.32245001 -94.12471205 227.32245001 -94.12025452 229.10432434 C-94.12110894 230.34591283 -94.12196337 231.58750132 -94.12284368 232.8667137 C-94.12420619 236.31011503 -94.12108017 239.75345954 -94.11606562 243.196854 C-94.11174787 246.9111839 -94.11320849 250.62551204 -94.1139679 254.33984375 C-94.11449229 260.77423837 -94.11135431 267.20862284 -94.10573006 273.64301491 C-94.09760363 282.94606973 -94.09499866 292.24911965 -94.09374207 301.55217763 C-94.09155335 316.64570909 -94.08489813 331.73923515 -94.07543945 346.83276367 C-94.06626069 361.49487277 -94.05918212 376.1569804 -94.05493164 390.8190918 C-94.05466892 391.72283784 -94.05440619 392.62658388 -94.05413551 393.55771617 C-94.05283047 398.09153658 -94.05156676 402.625357 -94.05032361 407.15917742 C-94.0399566 444.77278876 -94.02234317 482.38639396 -94 520 C-85.01958345 511.08939378 -76.04750966 502.17047773 -67.08570957 493.24114609 C-62.92319384 489.09422119 -58.7579619 484.95010637 -54.58618164 480.8125 C-50.55296596 476.81211356 -46.52733238 472.80423476 -42.50663567 468.7912674 C-40.97885398 467.26898717 -39.44845436 465.74932926 -37.91528511 464.23247528 C-27.31432191 453.73975952 -16.98306992 443.39796356 -10.625 429.6875 C-10.30917969 429.03716797 -9.99335938 428.38683594 -9.66796875 427.71679688 C-8.75470249 425.82015886 -7.86331165 423.91995264 -7 422 C-6.52011448 420.95445717 -6.04022896 419.90891435 -5.54580146 418.8316884 C-0.62134401 407.276227 -0.56469888 394.42357906 -0.63923645 382.0802002 C-0.63792465 380.43709365 -0.63529138 378.79398773 -0.63146895 377.15088511 C-0.62482551 372.68333058 -0.63667088 368.2159957 -0.65180314 363.74846911 C-0.66484894 358.91298659 -0.66036804 354.07751485 -0.65809631 349.24201965 C-0.65652894 340.87996016 -0.66588182 332.5179713 -0.68280983 324.15592957 C-0.70726836 312.06607108 -0.71501209 299.97624649 -0.7187738 287.88636595 C-0.72532757 268.26781188 -0.74525948 248.6492954 -0.77368164 229.03076172 C-0.80125009 209.98160994 -0.82243559 190.93246846 -0.83520508 171.88330078 C-0.83600907 170.69567505 -0.83681306 169.50804931 -0.83764142 168.28443491 C-0.84388027 158.99539266 -0.84975084 149.70635018 -0.85550511 140.41730762 C-0.88376803 94.94483724 -0.94413194 49.47246103 -1 4 C-71.95 74.95 -142.9 145.9 -216 219 C-219.48500162 217.25749919 -221.14820984 216.10102396 -223.80307388 213.44302177 C-224.54951794 212.70055982 -225.295962 211.95809786 -226.06502557 211.19313705 C-226.87825524 210.37408169 -227.69148491 209.55502634 -228.52935791 208.71115112 C-229.39848871 207.84372917 -230.26761951 206.97630722 -231.16308761 206.08259976 C-233.57483699 203.67357746 -235.98201196 201.26014271 -238.38737631 198.84475493 C-240.9822151 196.24128663 -243.58282352 193.64359303 -246.18273926 191.04519653 C-250.68658803 186.54239693 -255.18675778 182.03594725 -259.68445587 177.52700424 C-266.1873919 171.00782049 -272.69583751 164.49416034 -279.20564505 157.98183908 C-289.76698898 147.4161169 -300.32385801 136.84593526 -310.87792969 126.27294922 C-321.13079584 116.00172762 -331.38575855 105.73260676 -341.64355469 95.46630859 C-342.27574686 94.83359098 -342.90793902 94.20087336 -343.55928853 93.54898249 C-346.73079469 90.37486627 -349.90234219 87.20079135 -353.07391024 84.02673697 C-379.38901855 57.69089214 -405.69687181 31.34780981 -432 5 C-432.06871293 54.920912 -432.12155255 104.84181921 -432.15319599 154.76276922 C-432.15694797 160.66053112 -432.16083095 166.55829293 -432.16479492 172.45605469 C-432.16558185 173.63015994 -432.16636878 174.80426519 -432.16717956 176.01394939 C-432.18022248 195.00827611 -432.20387018 214.0025755 -432.23145839 232.99688601 C-432.2595436 252.49645555 -432.27618285 271.99601081 -432.28226548 291.49559975 C-432.28637546 303.52141358 -432.29934208 315.54715018 -432.3237494 327.57294023 C-432.33964505 335.82692725 -432.3443917 344.0808745 -432.34050413 352.3348757 C-432.33858854 357.09223677 -432.34146089 361.84946315 -432.35761642 366.60680008 C-432.37233196 370.97223923 -432.37287769 375.33745449 -432.36269668 379.70290446 C-432.36144041 381.27249688 -432.36514664 382.84210391 -432.37464955 384.41166806 C-432.54015103 413.46388255 -421.96742252 436.83774383 -401.69382763 457.51751328 C-398.22773165 461.01142287 -394.7388514 464.48199273 -391.24609375 467.94921875 C-389.73394077 469.45763365 -388.22223461 470.96649661 -386.71095276 472.4757843 C-382.76499943 476.41416374 -378.81307403 480.34649542 -374.85980225 484.27752686 C-370.81366239 488.30307255 -366.7732992 492.33440735 -362.73242188 496.36523438 C-354.8272044 504.24911234 -346.91565504 512.12660267 -339 520 C-338.97712155 480.72033653 -338.95949562 441.44067393 -338.94893467 402.16100513 C-338.94768393 397.52587515 -338.94638961 392.89074519 -338.94506836 388.25561523 C-338.94480605 387.33282682 -338.94454374 386.41003841 -338.94427348 385.45928671 C-338.9399197 370.50882007 -338.93203375 355.55835727 -338.9228472 340.60789291 C-338.91350256 325.27247072 -338.90794267 309.93705054 -338.90591151 294.60162562 C-338.90453797 285.13544272 -338.90019649 275.66927067 -338.89208353 266.20309111 C-338.88680609 259.71573999 -338.88519799 253.2283945 -338.88649862 246.7410414 C-338.88714043 242.99569671 -338.88614213 239.25037101 -338.88079453 235.50502968 C-338.8750432 231.44737647 -338.87700716 227.38976389 -338.87974548 223.33210754 C-338.87683264 222.14436873 -338.8739198 220.95662991 -338.87091869 219.73289901 C-338.87290974 218.64657453 -338.87490079 217.56025006 -338.87695217 216.44100666 C-338.87657245 215.50423661 -338.87619273 214.56746655 -338.8758015 213.60230953 C-339.00125554 210.97369297 -339.44350686 208.567829 -340 206 C-340.11678799 203.32321927 -340.0454506 200.68158543 -340 198 C-339.67 198 -339.34 198 -339 198 C-337.1979581 206.15101804 -336.71869563 213.91226143 -336.75949097 222.24345398 C-336.75778212 223.53508809 -336.75607327 224.82672221 -336.75431263 226.15749675 C-336.7498741 229.71278395 -336.75779419 233.26794896 -336.76786876 236.82322061 C-336.7765518 240.66832538 -336.77357968 244.51342394 -336.77206421 248.35853577 C-336.77101841 255.01055708 -336.77726299 261.66253899 -336.78853989 268.3145504 C-336.80483347 277.93209086 -336.81000683 287.54961237 -336.81251587 297.16716514 C-336.81688693 312.77315668 -336.83018002 328.37912726 -336.84912109 343.98510742 C-336.86749516 359.13972875 -336.88164418 374.29434438 -336.89013672 389.44897461 C-336.89066217 390.38400126 -336.89118761 391.31902792 -336.89172898 392.28238871 C-336.89433917 396.97341007 -336.89686656 401.66443147 -336.89935279 406.3554529 C-336.92006694 445.23698328 -336.9552764 484.11849025 -337 523 C-339.84736318 521.62710058 -341.93482315 520.31927047 -344.18508911 518.08906555 C-345.09300957 517.19610779 -345.09300957 517.19610779 -346.01927185 516.28511047 C-346.67178421 515.63326279 -347.32429657 514.9814151 -347.99658203 514.30981445 C-349.04137978 513.27750198 -349.04137978 513.27750198 -350.10728455 512.22433472 C-352.41295904 509.94278681 -354.71087591 507.65362383 -357.0078125 505.36328125 C-358.61474378 503.76532218 -360.22174972 502.16743819 -361.8288269 500.56962585 C-365.20343045 497.21152762 -368.57359958 493.84904475 -371.94140625 490.48413086 C-376.22621799 486.20466996 -380.52688352 481.94154194 -384.83188057 477.6824007 C-388.16249126 474.38177909 -391.48154923 471.06971634 -394.79769516 467.7545681 C-396.37619145 466.18023956 -397.95875103 464.60997289 -399.54565811 463.0441227 C-420.47384824 442.37139632 -434.86428867 419.17424041 -435.12304783 388.86237335 C-435.13102869 385.93494537 -435.12606867 383.00762844 -435.12025452 380.0802002 C-435.12069088 378.44812424 -435.12156698 376.81604835 -435.12284368 375.18397284 C-435.12507589 370.70981856 -435.12108479 366.23568829 -435.11606562 361.76153708 C-435.11174302 356.93273006 -435.11320883 352.10392437 -435.1139679 347.27511597 C-435.11449198 338.91239603 -435.11135721 330.54968391 -435.10573006 322.18696594 C-435.09759947 310.09591207 -435.09499823 298.00486197 -435.09374207 285.91380566 C-435.091554 266.29637612 -435.08490056 246.67895073 -435.07543945 227.06152344 C-435.06625899 208.00618511 -435.05918126 188.95084791 -435.05493164 169.89550781 C-435.05466892 168.72073334 -435.05440619 167.54595887 -435.05413551 166.33558518 C-435.05283046 160.44202619 -435.05156676 154.54846719 -435.05032361 148.65490818 C-435.03995864 99.76993591 -435.02234698 50.88496816 -435 2 C-431.4021697 2.58094374 -429.73255155 3.89380278 -427.18130875 6.44954777 C-426.43138129 7.19350207 -425.68145384 7.93745638 -424.90880132 8.70395476 C-424.0916807 9.5298139 -423.27456007 10.35567305 -422.43267822 11.20655823 C-421.55946387 12.07720931 -420.68624952 12.94786038 -419.78657413 13.84489483 C-417.3615728 16.26580232 -414.94350001 18.69327659 -412.5280807 21.12372243 C-409.922775 23.7419632 -407.30882634 26.35154949 -404.69590759 28.96218872 C-400.16913486 33.48738711 -395.64789468 38.01805327 -391.13034821 42.55246162 C-384.59870204 49.10847148 -378.05880417 55.65619824 -371.51685175 62.20192205 C-360.90363336 72.82170906 -350.29713407 83.44818064 -339.69482422 94.07885742 C-329.39462523 104.40658636 -319.09128535 114.73116503 -308.78369141 125.05151367 C-308.14851224 125.68748101 -307.51333308 126.32344834 -306.85890606 126.97868741 C-303.67243303 130.16907551 -300.485898 133.35940167 -297.29933214 136.54969704 C-270.85660177 163.02353609 -244.42476017 189.50822465 -218 216 C-214.78789575 214.58452067 -212.64006241 212.88905545 -210.16569138 210.41178703 C-209.41228053 209.66235828 -208.65886968 208.91292953 -207.8826282 208.14079082 C-207.06161663 207.31395357 -206.24060506 206.48711632 -205.39471436 205.63522339 C-204.51741645 204.75963433 -203.64011855 203.88404528 -202.73623586 202.98192322 C-200.30168355 200.55009812 -197.87170517 198.11385952 -195.44353771 195.67566895 C-192.82415864 193.04766071 -190.19901028 190.42542681 -187.57455444 187.80249023 C-183.02814387 183.25712884 -178.4854123 178.70811713 -173.94515228 174.1566124 C-167.38067794 167.57589062 -160.81069422 161.0006921 -154.23934856 154.42683269 C-143.57817609 143.76128193 -132.92147849 133.09127159 -122.26757812 122.41845703 C-111.9177067 112.05023028 -101.56573879 101.68410416 -91.2109375 91.32080078 C-90.25368826 90.36276337 -90.25368826 90.36276337 -89.27710065 89.38537167 C-86.07562635 86.18128731 -82.87411071 82.97724425 -79.67257452 79.77322173 C-53.10863808 53.18854862 -26.55195659 26.59663795 0 0 Z " fill="#2D1C0E" transform="translate(440,56)"/>
<path d="M0 0 C0.99 0.495 0.99 0.495 2 1 C2.06872068 51.03128433 2.12155648 101.06256388 2.15319599 151.09388616 C2.15694795 157.00538057 2.16083093 162.91687488 2.16479492 168.82836914 C2.16558185 170.0052027 2.16636878 171.18203626 2.16717956 172.39453144 C2.18022064 191.43021498 2.20386732 210.46587125 2.23145839 229.50153863 C2.25954872 249.04518348 2.27618393 268.58881408 2.28226548 288.1324783 C2.2863744 300.18439222 2.29933523 312.23622903 2.3237494 324.2881192 C2.33965139 332.56126934 2.34439028 340.83437982 2.34050413 349.10754412 C2.33858952 353.87515533 2.34144956 358.64263211 2.35761642 363.41021919 C2.37234597 367.7861962 2.37286886 372.16194992 2.36269668 376.53793777 C2.36144175 378.11023974 2.36513596 379.68255636 2.37464955 381.25483005 C2.56406196 414.5281969 -9.32269886 438.10301782 -32.4331398 461.5602417 C-35.83300127 464.99202571 -39.24518055 468.41138923 -42.66015625 471.828125 C-44.14187079 473.31305999 -45.62351316 474.79806699 -47.10508728 476.28314209 C-50.18345214 479.36744476 -53.26382541 482.4497251 -56.34545898 485.53076172 C-60.30167927 489.48687933 -64.25091312 493.44989573 -68.19852543 497.41460037 C-71.24304351 500.47019213 -74.29205008 503.52127365 -77.3423748 506.57106781 C-78.80209276 508.03196787 -80.26018475 509.49449443 -81.71663094 510.95865631 C-83.73877753 512.9905319 -85.76707755 515.01605571 -87.79711914 517.04003906 C-88.39914658 517.647686 -89.00117401 518.25533295 -89.6214447 518.88139343 C-93.77166775 523 -93.77166775 523 -96 523 C-96.04580539 484.09428168 -96.0810334 445.18856688 -96.10213066 406.28282697 C-96.10463199 401.68676091 -96.10722064 397.09069489 -96.10986328 392.49462891 C-96.1103879 391.5796579 -96.11091252 390.66468689 -96.11145304 389.72198948 C-96.12014908 374.91850915 -96.13591465 360.1150444 -96.15430559 345.3115733 C-96.17302693 330.11510956 -96.18412145 314.91865397 -96.18817699 299.72217917 C-96.19091741 290.349666 -96.19956425 280.97719687 -96.21583293 271.60469726 C-96.22642739 265.17242352 -96.22959506 258.74017245 -96.22700275 252.30789062 C-96.22572529 248.60013596 -96.22764534 244.89245809 -96.23841095 241.18471718 C-96.25002319 237.15574895 -96.24595638 233.1269427 -96.24050903 229.09796143 C-96.24633472 227.9383944 -96.2521604 226.77882737 -96.25816262 225.58412194 C-96.2312972 218.20815084 -95.43403311 211.23467957 -94 204 C-93.67 204 -93.34 204 -93 204 C-92.87426535 211.41834455 -92.87426535 211.41834455 -93.49841303 214.30568618 C-94.01032276 217.05544953 -94.12420317 219.5525277 -94.12304783 222.34730244 C-94.12503888 223.41272654 -94.12702993 224.47815064 -94.12908131 225.57586032 C-94.12616847 226.74025345 -94.12325563 227.90464657 -94.12025452 229.10432434 C-94.12110894 230.34591283 -94.12196337 231.58750132 -94.12284368 232.8667137 C-94.12420619 236.31011503 -94.12108017 239.75345954 -94.11606562 243.196854 C-94.11174787 246.9111839 -94.11320849 250.62551204 -94.1139679 254.33984375 C-94.11449229 260.77423837 -94.11135431 267.20862284 -94.10573006 273.64301491 C-94.09760363 282.94606973 -94.09499866 292.24911965 -94.09374207 301.55217763 C-94.09155335 316.64570909 -94.08489813 331.73923515 -94.07543945 346.83276367 C-94.06626069 361.49487277 -94.05918212 376.1569804 -94.05493164 390.8190918 C-94.05466892 391.72283784 -94.05440619 392.62658388 -94.05413551 393.55771617 C-94.05283047 398.09153658 -94.05156676 402.625357 -94.05032361 407.15917742 C-94.0399566 444.77278876 -94.02234317 482.38639396 -94 520 C-85.01958345 511.08939378 -76.04750966 502.17047773 -67.08570957 493.24114609 C-62.92319384 489.09422119 -58.7579619 484.95010637 -54.58618164 480.8125 C-50.55296596 476.81211356 -46.52733238 472.80423476 -42.50663567 468.7912674 C-40.97885398 467.26898717 -39.44845436 465.74932926 -37.91528511 464.23247528 C-27.31432191 453.73975952 -16.98306992 443.39796356 -10.625 429.6875 C-10.30917969 429.03716797 -9.99335938 428.38683594 -9.66796875 427.71679688 C-8.75470249 425.82015886 -7.86331165 423.91995264 -7 422 C-6.52012316 420.95431903 -6.04024631 419.90863807 -5.54582775 418.8312698 C-0.60596248 407.23928497 -0.56613819 394.35353376 -0.64596558 381.97303772 C-0.64537184 380.31827002 -0.64345115 378.66350237 -0.64033616 377.0087375 C-0.63561399 372.50890361 -0.64940219 368.00929601 -0.66646218 363.50949919 C-0.68157829 358.63923688 -0.67911879 353.76897826 -0.67883301 348.8986969 C-0.68066398 340.47606767 -0.69332095 332.05351183 -0.71337509 323.63090706 C-0.74226849 311.45239289 -0.75348141 299.27391124 -0.76028444 287.09536701 C-0.77170755 267.33154231 -0.79578966 247.5677551 -0.82861328 227.80395508 C-0.86043957 208.61613339 -0.88875486 189.42831433 -0.91064453 170.24047852 C-0.9119981 169.05642325 -0.91335168 167.87236799 -0.91474627 166.65243227 C-0.92937583 153.73587443 -0.94260814 140.81931572 -0.95417976 127.90275478 C-0.95519815 126.76907459 -0.95621653 125.6353944 -0.95726577 124.46736027 C-0.96131681 119.9368544 -0.96535307 115.40634854 -0.96921016 110.8758425 C-0.98054887 97.59930737 -0.99627972 84.32279446 -1.01985599 71.04627513 C-1.03451941 62.73275723 -1.04600847 54.41923932 -1.05496179 46.10571332 C-1.06030051 41.30356209 -1.06739141 36.5014283 -1.07883072 31.69928741 C-1.08927896 27.31128492 -1.09524605 22.92330095 -1.09753706 18.53528684 C-1.09920878 16.9408694 -1.10261344 15.34645274 -1.10784684 13.75204302 C-1.11468831 11.59935979 -1.11548942 9.44676016 -1.11466789 7.29406834 C-1.1176768 5.49410336 -1.1176768 5.49410336 -1.12074649 3.65777546 C-1 1 -1 1 0 0 Z " fill="#392713" transform="translate(440,56)"/>
<path d="M0 0 C2.80303747 1.27953699 4.86048081 2.60902535 7.04061604 4.78055382 C7.61699041 5.3498626 8.19336478 5.91917138 8.78720504 6.50573194 C9.41046037 7.13140235 10.03371569 7.75707276 10.67585754 8.40170288 C11.34559984 9.0662085 12.01534214 9.73071412 12.70537966 10.41535628 C14.95267252 12.64762366 17.19273577 14.88700667 19.43286133 17.12646484 C21.04057169 18.72655572 22.64868497 20.32624186 24.25717163 21.92555237 C28.62744465 26.27385921 32.99110706 30.62874159 37.35294938 34.98550367 C40.07565945 37.70457422 42.79966403 40.422341 45.52411461 43.13966751 C53.06532992 50.66142994 60.60507159 58.1846557 68.13802052 65.71469688 C68.61985223 66.19634103 69.10168394 66.67798517 69.59811662 67.17422459 C70.57490075 68.15064247 71.5516836 69.12706163 72.52846519 70.10348205 C73.25578727 70.83052992 73.25578727 70.83052992 73.99780273 71.57226562 C74.7260085 72.30020057 74.7260085 72.30020057 75.4689255 73.04284127 C83.34575429 80.916124 91.23426814 88.77758534 99.12797634 96.63394134 C107.22951511 104.69744973 115.32147694 112.7704379 123.40439814 120.852615 C127.94405147 125.39147304 132.48764683 129.92621297 137.04105568 134.45127487 C141.31933262 138.70351081 145.58563856 142.96739387 149.84284592 147.24072075 C151.41113384 148.81083401 152.98374256 150.37664451 154.56084633 151.93790245 C156.70527215 154.06208174 158.83388976 156.20091279 160.95906067 158.34432983 C161.5934696 158.9655388 162.22787854 159.58674777 162.88151199 160.22678125 C164.58858967 161.9677639 164.58858967 161.9677639 167 165 C166.54642838 168.73603383 164.7863683 170.73682325 162.375 173.5625 C156.47347254 180.74604689 151.29822372 188.26940779 148 197 C147.34 197 146.68 197 146 197 C145.82404297 198.28583984 145.82404297 198.28583984 145.64453125 199.59765625 C144.9837018 203.08603473 143.94892067 206.12187724 142.6875 209.4375 C139.97812959 216.85303114 137.82638557 224.31163454 136 232 C135.81904785 232.67844971 135.6380957 233.35689941 135.45166016 234.0559082 C133.60971656 241.74049689 133.69716244 249.4596831 133.73925781 257.3112793 C133.7499004 259.6654687 133.73935554 262.01888179 133.7265625 264.37304688 C133.71512339 276.40636108 134.04434076 288.54654748 138.3359375 299.92578125 C139.49759172 303.55424238 139.69953375 307.21412519 140 311 C136.83167121 307.83167121 136.49963263 303.78284701 135.5 299.5 C135.27932861 298.55527832 135.05865723 297.61055664 134.83129883 296.63720703 C126.40350766 259.21593095 131.01497671 218.5706213 150.80859375 185.3359375 C153.93368602 180.57866691 157.34263403 176.08591499 160.8984375 171.64453125 C163.06158196 168.99796681 163.06158196 168.99796681 165 166 C111.21 112.21 57.42 58.42 2 3 C-1.65732836 38.41790957 -1.65732836 38.41790957 10.96875 53.6796875 C14.76165888 57.22149789 18.52967274 60.55913657 22.5 63.875 C24.49474639 65.65606722 26.46024802 67.46806181 28.42578125 69.28125 C33.19152096 73.63459153 38.04737273 77.86099644 43 82 C42.67 82.66 42.34 83.32 42 84 C34.81014083 78.08454915 27.82266042 71.95925016 21 65.625 C20.50115547 65.16210823 20.00231094 64.69921646 19.48834991 64.22229767 C8.03038043 53.4977947 -2.08482811 43.43807928 -2.94158936 26.91842651 C-2.97774833 17.84854941 -1.8529224 8.86552104 0 0 Z " fill="#26190B" transform="translate(35,129)"/>
<path d="M0 0 C4.22335774 1.64639369 7.0721076 4.76927346 10.1875 7.9375 C10.76048828 8.51725586 11.33347656 9.09701172 11.92382812 9.69433594 C26.61725668 24.74152565 37.1883882 41.15724767 37.12025452 62.75056458 C37.12110894 63.73897282 37.12196337 64.72738106 37.12284368 65.74574107 C37.124492 69.06073704 37.11898767 72.37568251 37.11352539 75.69067383 C37.11324335 78.06576537 37.11340158 80.440857 37.1139679 82.81594849 C37.11422538 88.59785495 37.10988733 94.37974485 37.10353024 100.16164754 C37.09637984 106.89009128 37.09488491 113.61853268 37.09374207 120.3469797 C37.09155408 132.34582525 37.08490084 144.344664 37.07543945 156.34350586 C37.0662588 167.99845343 37.05918116 179.65339915 37.05493164 191.30834961 C37.05466892 192.02690193 37.05440619 192.74545424 37.05413551 193.48578087 C37.05283046 197.09058886 37.05156675 200.69539686 37.05032361 204.30020487 C37.03995887 234.20014135 37.02227303 264.10006988 37 294 C33.47655356 292.3413812 31.20098122 290.43342692 28.453125 287.6484375 C27.60878906 286.79765625 26.76445313 285.946875 25.89453125 285.0703125 C25.02183594 284.18085938 24.14914063 283.29140625 23.25 282.375 C22.36183594 281.4778125 21.47367188 280.580625 20.55859375 279.65625 C18.36783031 277.44192996 16.18187237 275.22307565 14 273 C14.33 272.34 14.66 271.68 15 271 C21.27 277.27 27.54 283.54 34 290 C34.11323854 259.95260243 34.2026593 229.90522861 34.25532665 199.85766494 C34.26157952 196.30322158 34.2680512 192.74877865 34.2746582 189.19433594 C34.27662553 188.13298191 34.27662553 188.13298191 34.2786326 187.0501864 C34.30033728 175.62164283 34.33973125 164.19322615 34.38576398 152.76475763 C34.43266667 141.02159943 34.46032443 129.27850727 34.47044247 117.53525925 C34.47694231 110.94614995 34.49214388 104.35732759 34.52865028 97.76831055 C34.56278526 91.55652314 34.5730176 85.34513875 34.56553841 79.13326645 C34.56690514 76.86303385 34.57673225 74.59278667 34.59602737 72.32263565 C34.80647806 46.26699288 27.41776409 29.03571667 9.37841797 10.31738281 C6.94305687 7.85008499 4.47603178 5.42243188 1.984375 3.01171875 C0 1 0 1 0 0 Z " fill="#21160A" transform="translate(37,214)"/>
<path d="M0 0 C0 3 0 3 -1.94140625 5.19921875 C-2.80636719 6.02035156 -3.67132813 6.84148437 -4.5625 7.6875 C-18.00507786 20.78975944 -30.83211626 36.47478884 -31.12304783 56.22285175 C-31.12724203 57.9388716 -31.12590734 59.65491024 -31.12025452 61.3709259 C-31.12110894 62.31849862 -31.12196337 63.26607134 -31.12284368 64.24235839 C-31.12449149 67.41915982 -31.11898852 70.59590851 -31.11352539 73.77270508 C-31.11324334 76.0492757 -31.1134016 78.32584642 -31.1139679 80.60241699 C-31.11425518 86.78581595 -31.10836952 92.96919558 -31.10139394 99.15259004 C-31.09514898 105.6135004 -31.09455569 112.07441118 -31.09336853 118.5353241 C-31.09061208 129.38056819 -31.08436293 140.22580434 -31.07543945 151.07104492 C-31.0662584 162.24096644 -31.05918095 173.41088602 -31.05493164 184.58081055 C-31.05453756 185.61383409 -31.05453756 185.61383409 -31.05413551 186.66772679 C-31.05283046 190.12269407 -31.05156675 193.57766136 -31.05032361 197.03262866 C-31.03995935 225.6884239 -31.02227391 254.34421167 -31 283 C-30.16807129 282.16807129 -30.16807129 282.16807129 -29.31933594 281.31933594 C-22.21289062 274.21289062 -15.10644531 267.10644531 -8 260 C-9.36594835 264.12099673 -11.15720934 266.51349486 -14.24609375 269.5390625 C-15.08333984 270.36664063 -15.92058594 271.19421875 -16.78320312 272.046875 C-17.65912109 272.89765625 -18.53503906 273.7484375 -19.4375 274.625 C-20.74557617 275.91277344 -20.74557617 275.91277344 -22.08007812 277.2265625 C-23.69901043 278.81936292 -25.32100439 280.40906169 -26.94702148 281.99462891 C-28.20729099 283.22567347 -29.44684464 284.47893699 -30.64868164 285.76708984 C-32 287 -32 287 -34 287 C-34.09142906 257.58956067 -34.16213062 228.1791281 -34.20426132 198.76857629 C-34.2092636 195.28923943 -34.21444094 191.80990285 -34.21972656 188.33056641 C-34.2207758 187.63795013 -34.22182505 186.94533386 -34.22290608 186.23172921 C-34.24026833 175.04570367 -34.27178271 163.85976113 -34.30861118 152.67378467 C-34.34613746 141.17922192 -34.3679614 129.68471729 -34.37635398 118.19009447 C-34.38155312 111.74075729 -34.39370995 105.29160777 -34.42292023 98.84233093 C-34.45023465 92.76190437 -34.45841271 86.68174133 -34.45243073 80.60125923 C-34.45352382 78.37941108 -34.4613814 76.15755336 -34.4768219 73.93575859 C-34.6321413 50.41641599 -30.87182421 32.43609927 -14 15 C-12.41061715 13.2345943 -10.82719168 11.46380558 -9.25 9.6875 C-6.25445759 6.35620502 -3.21905639 3.11521587 0 0 Z " fill="#20150A" transform="translate(407,221)"/>
<path d="M0 0 C0.66 0.33 1.32 0.66 2 1 C0.88121617 2.17262904 -0.24523051 3.33795138 -1.375 4.5 C-2.00148437 5.1496875 -2.62796875 5.799375 -3.2734375 6.46875 C-5 8 -5 8 -7 8 C-7.26683594 8.59039062 -7.53367188 9.18078125 -7.80859375 9.7890625 C-9.02079518 12.0385904 -10.30174831 13.53516017 -12.0625 15.375 C-26.7349003 31.9875524 -35.34749622 53.15916589 -39.52832031 74.70092773 C-39.82982472 76.17052765 -40.16954659 77.63312736 -40.55761719 79.08227539 C-42.44515902 86.25743995 -42.31299055 93.4371713 -42.25 100.8125 C-42.24556885 101.49974152 -42.2411377 102.18698303 -42.23657227 102.89505005 C-41.99924432 134.3496741 -35.5882884 166.03599908 -15 191 C-15.33 191.66 -15.66 192.32 -16 193 C-39.51786934 165.77674288 -47.22774646 127.40296453 -44.6875 92.30859375 C-42.21122575 63.08141454 -31.98959045 35.5641016 -13 13 C-12.5867749 12.48888672 -12.1735498 11.97777344 -11.74780273 11.45117188 C-9.25723538 8.38615256 -6.69884107 5.67698396 -3.6875 3.125 C-2.99011719 2.52945312 -2.29273438 1.93390625 -1.57421875 1.3203125 C-1.05472656 0.88460938 -0.53523438 0.44890625 0 0 Z " fill="#2D1D0E" transform="translate(211,8)"/>
<path d="M0 0 C0.33 0 0.66 0 1 0 C2.26710415 20.55524509 -5.28295807 41.29623805 -18.65350342 56.93386841 C-26.01569901 65.21697883 -33.85186698 73.01589048 -41.68359375 80.8515625 C-43.19058805 82.36177519 -44.69750921 83.87206085 -46.20436096 85.38241577 C-49.34175087 88.52575567 -52.48116207 91.66706059 -55.62182617 94.80712891 C-59.65433177 98.83953203 -63.67986406 102.87882209 -67.70374966 106.9198246 C-70.80317174 110.03032343 -73.90708564 113.13630908 -77.01231575 116.24100876 C-78.4999443 117.7298199 -79.98594576 119.22025865 -81.47030449 120.71232986 C-83.53337991 122.78513618 -85.6026133 124.85159014 -87.67358398 126.91650391 C-88.28810425 127.53664368 -88.90262451 128.15678345 -89.5357666 128.79571533 C-93.77167128 133 -93.77167128 133 -96 133 C-96 132.34 -96 131.68 -96 131 C-94.75852966 129.77482605 -94.75852966 129.77482605 -92.90405273 128.26635742 C-86.09213815 122.46659778 -79.86602057 116.05147245 -73.53515625 109.73828125 C-72.84764219 109.05359457 -72.16012814 108.36890789 -71.45178032 107.66347313 C-67.81418909 104.04080219 -64.17943026 100.41531836 -60.54711914 96.78735352 C-56.82442109 93.07013345 -53.09253632 89.36228369 -49.3583765 85.65658283 C-46.46110968 82.77807183 -43.57070085 79.89274598 -40.68203545 77.0056057 C-39.31041326 75.63698075 -37.93632611 74.27082097 -36.55958748 72.90734291 C-26.42428403 62.86273883 -16.7032264 52.79451243 -10.625 39.6875 C-10.30917969 39.03716797 -9.99335938 38.38683594 -9.66796875 37.71679688 C-8.75518194 35.82115456 -7.8737557 33.91389304 -7 32 C-6.46375 30.84886719 -5.9275 29.69773437 -5.375 28.51171875 C-3.90535501 24.75827886 -3.04856529 21.07963387 -2.375 17.125 C-2.25020264 16.42826172 -2.12540527 15.73152344 -1.99682617 15.01367188 C-1.12192628 10.02087885 -0.45063809 5.04714659 0 0 Z " fill="#24150A" transform="translate(440,446)"/>
<path d="M0 0 C0.33 0 0.66 0 1 0 C1.18175781 1.08796875 1.36351562 2.1759375 1.55078125 3.296875 C2.20346602 7.15304767 2.89601463 11.00093334 3.60742188 14.84667969 C3.92808654 16.60554929 4.22527002 18.36868606 4.515625 20.1328125 C5.83152313 26.73110171 8.46949555 32.47780242 11.5 38.4375 C12.05892944 39.56357666 12.05892944 39.56357666 12.62915039 40.71240234 C20.06631647 54.69576947 32.54795437 65.83814956 43.66015625 76.890625 C45.14216601 78.37143954 46.62380286 79.85262737 48.10508728 81.33416748 C51.18212054 84.40965023 54.26244226 87.48178516 57.34545898 90.55126953 C61.30171947 94.49038423 65.25120675 98.4362082 69.19852543 102.38428116 C72.24444699 105.4299316 75.29296061 108.47297594 78.3423748 111.51512909 C79.80106909 112.97063991 81.25915737 114.42675833 82.71663094 115.88349152 C84.7409539 117.90565642 86.76852722 119.92450167 88.79711914 121.94238281 C89.39914658 122.54486343 90.00117401 123.14734406 90.6214447 123.76808167 C93.53547051 126.74760061 93.53547051 126.74760061 97 129 C97 129.66 97 130.32 97 131 C94.12839672 129.69558494 92.05153549 128.30575072 89.81491089 126.08906555 C89.20963058 125.49376038 88.60435028 124.8984552 87.98072815 124.28511047 C87.00195961 123.30733894 87.00195961 123.30733894 86.00341797 122.30981445 C85.30688614 121.62160614 84.61035431 120.93339783 83.89271545 120.22433472 C81.58704096 117.94278681 79.28912409 115.65362383 76.9921875 113.36328125 C75.38525622 111.76532218 73.77825028 110.16743819 72.1711731 108.56962585 C68.79656955 105.21152762 65.42640042 101.84904475 62.05859375 98.48413086 C57.77378201 94.20466996 53.47311648 89.94154194 49.16811943 85.6824007 C45.83750874 82.38177909 42.51845077 79.06971634 39.20230484 75.7545681 C37.62380855 74.18023956 36.04124897 72.60997289 34.45434189 71.0441227 C17.10228939 53.90388118 1.46477236 33.85345861 -0.2421875 8.38671875 C-0.24879076 5.57703086 -0.18789346 2.80274409 0 0 Z " fill="#23140A" transform="translate(6,448)"/>
<path d="M0 0 C4.55766604 4.22718985 6.74062819 8.94415119 9.375 14.5 C9.85960693 15.52013184 10.34421387 16.54026367 10.84350586 17.59130859 C17.09992436 31.11875661 21.46976782 45.13488738 23 60 C23.10957031 60.94359375 23.21914063 61.8871875 23.33203125 62.859375 C25.6325661 85.55798552 23.42217103 108.40822972 16 130 C14.78944866 126.50646257 15.23734946 124.37051312 16.3125 120.875 C19.38921235 110.32426496 21.13689172 99.7940146 21.203125 88.80078125 C21.21167511 87.66542183 21.21167511 87.66542183 21.22039795 86.50712585 C21.22978006 84.91467659 21.23635463 83.3222085 21.24023438 81.72973633 C21.2499061 79.33574209 21.28098005 76.94262054 21.3125 74.54882812 C21.37615174 65.24771728 20.46875326 57.02446798 18 48 C17.72235589 46.61010141 17.45942296 45.21708767 17.21875 43.8203125 C14.72579237 31.00325861 9.63359083 16.19856798 1.34008789 5.94848633 C0 4 0 4 0 0 Z " fill="#311F0F" transform="translate(257,33)"/>
<path d="M0 0 C0.33 0 0.66 0 1 0 C0.33357473 30.89789885 -16.90278372 59.56145182 -38 81 C-42.80835865 85.58328655 -47.79228513 89.87799247 -53 94 C-57.875 92.25 -57.875 92.25 -59 90 C-58.15953125 90.28359375 -57.3190625 90.5671875 -56.453125 90.859375 C-52.0548705 91.03848944 -50.84552294 89.83698812 -47.6472168 87.02587891 C-47.02113525 86.43983887 -46.39505371 85.85379883 -45.75 85.25 C-45.09104736 84.6523584 -44.43209473 84.0547168 -43.75317383 83.43896484 C-28.98664214 69.86796503 -18.83127755 55.05979522 -10.80029297 36.80029297 C-10.13499196 35.30367013 -9.43330558 33.8232859 -8.72265625 32.34765625 C-4.50058864 23.53707743 -2.86582596 13.99788928 -1.4296875 4.3984375 C-1 2 -1 2 0 0 Z " fill="#27190C" transform="translate(278,411)"/>
<path d="M0 0 C15.6833047 13.10988319 20.0896218 45.67207943 21.82788086 64.54223633 C22.10428369 68.48911198 22.14804095 72.41977326 22.125 76.375 C22.12306641 77.19137939 22.12113281 78.00775879 22.11914062 78.84887695 C22.07357299 85.26568533 21.71308903 91.62039991 21 98 C20.67 98 20.34 98 20 98 C19.98018066 96.97753174 19.96036133 95.95506348 19.93994141 94.90161133 C19.8628736 91.04527435 19.77432861 87.18926612 19.68261719 83.33325195 C19.64473925 81.67609224 19.60982134 80.01886174 19.578125 78.36157227 C19.11701043 54.5349177 14.86103313 31.52041382 3.5859375 10.32421875 C1.93920374 6.87256744 0.94534028 3.69244296 0 0 Z " fill="#352210" transform="translate(259,313)"/>
<path d="M0 0 C2.57410619 2.25492061 3.59217427 4.08858135 4.5703125 7.3515625 C4.82683594 8.20363281 5.08335937 9.05570313 5.34765625 9.93359375 C5.60417969 10.82175781 5.86070312 11.70992187 6.125 12.625 C6.38925781 13.48996094 6.65351563 14.35492188 6.92578125 15.24609375 C10.01938737 25.72038451 10.27249797 35.93014555 10.3125 46.8125 C10.31511841 47.49508881 10.31773682 48.17767761 10.32043457 48.88095093 C10.3266936 64.16483464 8.70285709 79.06991264 2 93 C1.19367945 94.76953599 0.38737505 96.5390794 -0.41845703 98.30883789 C-1.5958226 100.88030661 -2.79654757 103.44065784 -4 106 C-4.66 106 -5.32 106 -6 106 C-6.33 106.99 -6.66 107.98 -7 109 C-7.33 108.34 -7.66 107.68 -8 107 C-6.85691117 104.54749989 -5.65475372 102.19236845 -4.375 99.8125 C10.01621068 71.92423495 12.13522295 40.08872391 2.84375 10.16796875 C2.17046064 8.14088684 1.47252909 6.12155976 0.734375 4.1171875 C0 2 0 2 0 0 Z " fill="#342210" transform="translate(241,66)"/>
<path d="M0 0 C2.63066281 1.3153314 2.60275457 2.25522081 3.5625 5 C9.85423251 21.26529368 19.1142639 34.99732234 30.95703125 47.74609375 C33.0792839 50.08747 35.04942778 52.51466416 37 55 C21.59130202 48.33677925 10.93411372 27.52312319 4.0625 13.0625 C3.76786865 12.44802002 3.4732373 11.83354004 3.16967773 11.20043945 C1.4636319 7.4848368 0.48917269 4.05579886 0 0 Z " fill="#26180C" transform="translate(175,440)"/>
<path d="M0 0 C3.05399402 2.80244553 4.9155313 5.36909313 6.69140625 9.10546875 C7.16126953 10.08966797 7.63113281 11.07386719 8.11523438 12.08789062 C8.59283203 13.11076172 9.07042969 14.13363281 9.5625 15.1875 C10.04396484 16.19103516 10.52542969 17.19457031 11.02148438 18.22851562 C18.75931627 34.58759077 18.75931627 34.58759077 17 40 C16.68289063 39.06542969 16.36578125 38.13085938 16.0390625 37.16796875 C12.86333616 28.13025947 8.99121722 19.76433996 4.34033203 11.38549805 C0.45933965 4.32472614 0.45933965 4.32472614 0 0 Z " fill="#2F1F0E" transform="translate(257,33)"/>
<path d="M0 0 C3.34060612 2.7700057 4.9948366 6.49633123 6.875 10.3125 C7.39791626 11.36751709 7.39791626 11.36751709 7.93139648 12.44384766 C11.1436113 19.0612031 14.11052481 25.87574929 16 33 C15.67 33.66 15.34 34.32 15 35 C12.54627152 31.23101648 11.07839815 27.58078883 9.6875 23.3125 C7.76574029 17.73413976 5.40776234 13.07590763 2.2265625 8.1328125 C0.69732996 5.47370114 0.16067903 3.05290155 0 0 Z " fill="#2B1C0D" transform="translate(259,313)"/>
<path d="M0 0 C2.72401255 8.43504575 -4.46739221 18.60324519 -8 26 C-8.66 26 -9.32 26 -10 26 C-10.33 26.99 -10.66 27.98 -11 29 C-11.33 28.34 -11.66 27.68 -12 27 C-10.83950863 24.4601132 -9.6222569 22.0239397 -8.3125 19.5625 C-5.01117048 13.18989877 -2.20460156 6.84586802 0 0 Z " fill="#2A1B0D" transform="translate(245,146)"/>
<path d="M0 0 C0.734375 1.55078125 0.734375 1.55078125 1 4 C-0.15971429 6.51564287 -1.35841932 8.80774268 -2.75 11.1875 C-5.8408848 16.69079899 -8.28543533 21.89186335 -10 28 C-11.9133746 23.06800957 -9.41151033 19.11453688 -7.546875 14.484375 C-5.32654858 9.48303367 -2.75513754 4.72444548 0 0 Z " fill="#291B0C" transform="translate(358,232)"/>
<path d="M0 0 C0.6875 1.6875 0.6875 1.6875 1 4 C-0.3125 6.75 -0.3125 6.75 -2 9 C-2.66 9 -3.32 9 -4 9 C-4.25910156 9.72574219 -4.51820313 10.45148438 -4.78515625 11.19921875 C-6.04474561 14.10315949 -7.50801206 16.31038983 -9.4375 18.8125 C-10.33275391 19.99779297 -10.33275391 19.99779297 -11.24609375 21.20703125 C-11.82488281 21.79871094 -12.40367187 22.39039063 -13 23 C-13.99 23 -14.98 23 -16 23 C-15 21 -15 21 -12.69921875 18.7890625 C-9.84414594 15.83895832 -7.90649304 12.8987407 -5.8125 9.375 C-5.13832031 8.24835938 -4.46414062 7.12171875 -3.76953125 5.9609375 C-3.18558594 4.98382813 -2.60164062 4.00671875 -2 3 C-1.34 2.01 -0.68 1.02 0 0 Z " fill="#25180C" transform="translate(238,442)"/>
<path d="M0 0 C0.33 0.99 0.66 1.98 1 3 C1.66 3 2.32 3 3 3 C5.30844801 9.34823202 5.19818283 15.29481414 5 22 C4.67 22 4.34 22 4 22 C3.51835812 19.64631607 3.03963352 17.29209845 2.5625 14.9375 C2.42779297 14.28072266 2.29308594 13.62394531 2.15429688 12.94726562 C1.28529368 8.64464005 0.5827508 4.35082876 0 0 Z " fill="#4D3218" transform="translate(273,70)"/>
<path d="M0 0 C1.24769691 3.5517772 0.72044302 5.75984764 -0.375 9.3125 C-1.62416602 13.56765 -2.51085213 17.59766917 -3 22 C-3.33 22 -3.66 22 -4 22 C-4.19818283 15.29481414 -4.30844801 9.34823202 -2 3 C-1.34 3 -0.68 3 0 3 C0 2.01 0 1.02 0 0 Z " fill="#4B3118" transform="translate(173,70)"/>
<path d="M0 0 C2.63886669 3.18483911 5.14494105 6.2898821 7 10 C6.67 10.99 6.34 11.98 6 13 C4.98868775 11.59138651 3.99133233 10.17274547 3 8.75 C2.1646875 7.56664062 2.1646875 7.56664062 1.3125 6.359375 C0 4 0 4 0 0 Z " fill="#3B2612" transform="translate(87,224)"/>
<path d="M0 0 C2.61500768 2.36595933 4.38999603 4.86049226 6 8 C5.67 8.66 5.34 9.32 5 10 C2.9754262 8.06745228 1.57894208 6.36841312 0 4 C0 2.68 0 1.36 0 0 Z " fill="#2E1E0F" transform="translate(208,442)"/>
<path d="M0 0 C0.75 1.5625 0.75 1.5625 1 4 C-0.13084437 6.50286409 -1.52139516 8.67007722 -3 11 C-3.75 9.4375 -3.75 9.4375 -4 7 C-2.86915563 4.49713591 -1.47860484 2.32992278 0 0 Z " fill="#3C2713" transform="translate(358,232)"/>
<path d="M0 0 C3.39417765 3.12621626 5.6062718 5.56541027 7 10 C5.82174642 9.09827532 4.65768423 8.17798498 3.5 7.25 C2.8503125 6.73953125 2.200625 6.2290625 1.53125 5.703125 C0 4 0 4 0 0 Z " fill="#25180B" transform="translate(212,172)"/>
</svg>
